<svg width="40" height="40" viewBox="0 0 100 100" xmlns="http://www.w3.org/2000/svg">
  <!-- 중국 지도 실루엣을 기반으로 한 D 로고 -->
  <path d="M15,25 C20,15 35,10 45,12 C55,8 70,15 80,20 C85,25 88,35 85,45 C88,55 85,65 80,70 C75,75 65,78 55,75 C50,80 45,85 35,85 C25,82 18,75 15,65 C12,55 10,45 12,35 C10,30 12,25 15,25 Z" fill="#B91C1C" stroke="none"/>
  
  <!-- D 문자 -->
  <path d="M35,30 L35,70 L50,70 C60,70 65,60 65,50 C65,40 60,30 50,30 Z M40,35 L50,35 C55,35 60,40 60,50 C60,60 55,65 50,65 L40,65 Z" fill="white"/>
  
  <!-- 추가 디테일 (작은 섬들) -->
  <circle cx="75" cy="45" r="2" fill="#B91C1C"/>
  <circle cx="82" cy="50" r="1.5" fill="#B91C1C"/>
</svg> 